<svg xmlns="http://www.w3.org/2000/svg" xmlns:xlink="http://www.w3.org/1999/xlink" width="2000" zoomAndPan="magnify" viewBox="0 0 1500 1499.999933" height="2000" preserveAspectRatio="xMidYMid meet" version="1.0"><defs><g/><clipPath id="15e98e0e7d"><rect x="0" width="661" y="0" height="173"/></clipPath><clipPath id="aa92bf840e"><path d="M 114 725.609375 L 396.820312 725.609375 L 396.820312 1112.726562 L 114 1112.726562 Z M 114 725.609375 " clip-rule="nonzero"/></clipPath><clipPath id="3125838619"><path d="M 1039 734 L 1330 734 L 1330 1029 L 1039 1029 Z M 1039 734 " clip-rule="nonzero"/></clipPath><clipPath id="3179b5af1e"><path d="M 1206.949219 734.953125 L 1330 910.683594 L 1162.121094 1028.238281 L 1039.070312 852.507812 Z M 1206.949219 734.953125 " clip-rule="nonzero"/></clipPath><clipPath id="b5c4c126db"><path d="M 108 157 L 162 157 L 162 287 L 108 287 Z M 108 157 " clip-rule="nonzero"/></clipPath><clipPath id="dee6cb4550"><path d="M 167.949219 0.953125 L 291 176.683594 L 123.121094 294.238281 L 0.0703125 118.507812 Z M 167.949219 0.953125 " clip-rule="nonzero"/></clipPath><clipPath id="88a959cb5e"><path d="M 291 176.683594 L 167.949219 0.953125 L 0.0703125 118.507812 L 123.121094 294.238281 Z M 291 176.683594 " clip-rule="nonzero"/></clipPath><clipPath id="fec62e9b82"><path d="M 133 143 L 164 143 L 164 155 L 133 155 Z M 133 143 " clip-rule="nonzero"/></clipPath><clipPath id="90b009c601"><path d="M 167.949219 0.953125 L 291 176.683594 L 123.121094 294.238281 L 0.0703125 118.507812 Z M 167.949219 0.953125 " clip-rule="nonzero"/></clipPath><clipPath id="5218867039"><path d="M 291 176.683594 L 167.949219 0.953125 L 0.0703125 118.507812 L 123.121094 294.238281 Z M 291 176.683594 " clip-rule="nonzero"/></clipPath><clipPath id="06380a6938"><path d="M 136 125 L 166 125 L 166 141 L 136 141 Z M 136 125 " clip-rule="nonzero"/></clipPath><clipPath id="6aea6ab1c9"><path d="M 167.949219 0.953125 L 291 176.683594 L 123.121094 294.238281 L 0.0703125 118.507812 Z M 167.949219 0.953125 " clip-rule="nonzero"/></clipPath><clipPath id="229f79b73d"><path d="M 291 176.683594 L 167.949219 0.953125 L 0.0703125 118.507812 L 123.121094 294.238281 Z M 291 176.683594 " clip-rule="nonzero"/></clipPath><clipPath id="170eb5f373"><path d="M 143 2 L 171 2 L 171 121 L 143 121 Z M 143 2 " clip-rule="nonzero"/></clipPath><clipPath id="a0600a7d9e"><path d="M 167.949219 0.953125 L 291 176.683594 L 123.121094 294.238281 L 0.0703125 118.507812 Z M 167.949219 0.953125 " clip-rule="nonzero"/></clipPath><clipPath id="4d26c1ca46"><path d="M 291 176.683594 L 167.949219 0.953125 L 0.0703125 118.507812 L 123.121094 294.238281 Z M 291 176.683594 " clip-rule="nonzero"/></clipPath><clipPath id="c03cc124a3"><rect x="0" width="291" y="0" height="295"/></clipPath><clipPath id="16b9cfe163"><path d="M 1180.589844 722.097656 L 1192.578125 722.097656 L 1192.578125 734 L 1180.589844 734 Z M 1180.589844 722.097656 " clip-rule="nonzero"/></clipPath><clipPath id="916c1bfb91"><path d="M 1358 1027 L 1400 1027 L 1400 1082 L 1358 1082 Z M 1358 1027 " clip-rule="nonzero"/></clipPath><clipPath id="e13f3b3fde"><path d="M 1398.410156 1027.855469 L 1399.722656 1080.574219 L 1360.183594 1081.558594 L 1358.871094 1028.839844 Z M 1398.410156 1027.855469 " clip-rule="nonzero"/></clipPath><clipPath id="44a630f72b"><path d="M 0.839844 45 L 7 45 L 7 53 L 0.839844 53 Z M 0.839844 45 " clip-rule="nonzero"/></clipPath><clipPath id="73e7218760"><path d="M 40.410156 0.855469 L 41.722656 53.574219 L 2.183594 54.558594 L 0.871094 1.839844 Z M 40.410156 0.855469 " clip-rule="nonzero"/></clipPath><clipPath id="1ee6f37351"><path d="M 41.71875 53.5 L 40.40625 0.78125 L -188.4375 6.476562 L -187.125 59.195312 Z M 41.71875 53.5 " clip-rule="nonzero"/></clipPath><clipPath id="d9a3c0bdaa"><path d="M 17 4 L 41 4 L 41 52 L 17 52 Z M 17 4 " clip-rule="nonzero"/></clipPath><clipPath id="68243d63ee"><path d="M 40.410156 0.855469 L 41.722656 53.574219 L 2.183594 54.558594 L 0.871094 1.839844 Z M 40.410156 0.855469 " clip-rule="nonzero"/></clipPath><clipPath id="cda57cd5b8"><path d="M 41.71875 53.5 L 40.40625 0.78125 L -188.4375 6.476562 L -187.125 59.195312 Z M 41.71875 53.5 " clip-rule="nonzero"/></clipPath><clipPath id="bdd09eaeac"><path d="M 5 0.679688 L 35 0.679688 L 35 50 L 5 50 Z M 5 0.679688 " clip-rule="nonzero"/></clipPath><clipPath id="3576afb4a8"><path d="M 40.410156 0.855469 L 41.722656 53.574219 L 2.183594 54.558594 L 0.871094 1.839844 Z M 40.410156 0.855469 " clip-rule="nonzero"/></clipPath><clipPath id="57b78c8ab9"><path d="M 41.71875 53.5 L 40.40625 0.78125 L -188.4375 6.476562 L -187.125 59.195312 Z M 41.71875 53.5 " clip-rule="nonzero"/></clipPath><clipPath id="bcf931ea0c"><rect x="0" width="42" y="0" height="55"/></clipPath><clipPath id="83bf36f04e"><path d="M 742.203125 1072.816406 L 1186.519531 1072.816406 L 1186.519531 1079.1875 L 742.203125 1079.1875 Z M 742.203125 1072.816406 " clip-rule="nonzero"/></clipPath><clipPath id="13699d20fd"><path d="M 1075.4375 1072.816406 C 1136.785156 1072.816406 1186.515625 1074.242188 1186.515625 1076 C 1186.515625 1077.761719 1136.785156 1079.1875 1075.4375 1079.1875 L 853.28125 1079.1875 C 791.933594 1079.1875 742.203125 1077.761719 742.203125 1076 C 742.203125 1074.242188 791.933594 1072.816406 853.28125 1072.816406 Z M 1075.4375 1072.816406 " clip-rule="nonzero"/></clipPath><clipPath id="5d4e31125e"><path d="M 0.203125 0.816406 L 444.519531 0.816406 L 444.519531 7.1875 L 0.203125 7.1875 Z M 0.203125 0.816406 " clip-rule="nonzero"/></clipPath><clipPath id="5585b89a54"><path d="M 333.4375 0.816406 C 394.785156 0.816406 444.515625 2.242188 444.515625 4 C 444.515625 5.761719 394.785156 7.1875 333.4375 7.1875 L 111.28125 7.1875 C 49.933594 7.1875 0.203125 5.761719 0.203125 4 C 0.203125 2.242188 49.933594 0.816406 111.28125 0.816406 Z M 333.4375 0.816406 " clip-rule="nonzero"/></clipPath><clipPath id="0e61c5738a"><rect x="0" width="445" y="0" height="8"/></clipPath><clipPath id="c29144280b"><path d="M 757.203125 1069.34375 L 1248.421875 1069.34375 L 1248.421875 1078.644531 L 757.203125 1078.644531 Z M 757.203125 1069.34375 " clip-rule="nonzero"/></clipPath><clipPath id="c3763385dc"><path d="M 1125.589844 1069.34375 C 1193.40625 1069.34375 1248.386719 1071.425781 1248.386719 1073.992188 C 1248.386719 1076.5625 1193.40625 1078.644531 1125.589844 1078.644531 L 880 1078.644531 C 812.179688 1078.644531 757.203125 1076.5625 757.203125 1073.992188 C 757.203125 1071.425781 812.179688 1069.34375 880 1069.34375 Z M 1125.589844 1069.34375 " clip-rule="nonzero"/></clipPath><clipPath id="0e90bbf93b"><path d="M 0.203125 0.34375 L 491.421875 0.34375 L 491.421875 9.644531 L 0.203125 9.644531 Z M 0.203125 0.34375 " clip-rule="nonzero"/></clipPath><clipPath id="480d4e2583"><path d="M 368.589844 0.34375 C 436.40625 0.34375 491.386719 2.425781 491.386719 4.992188 C 491.386719 7.5625 436.40625 9.644531 368.589844 9.644531 L 123 9.644531 C 55.179688 9.644531 0.203125 7.5625 0.203125 4.992188 C 0.203125 2.425781 55.179688 0.34375 123 0.34375 Z M 368.589844 0.34375 " clip-rule="nonzero"/></clipPath><clipPath id="cc70c6b0b4"><rect x="0" width="492" y="0" height="10"/></clipPath><clipPath id="fd7a2fda0c"><path d="M 756.453125 1072.492188 L 1247.671875 1072.492188 L 1247.671875 1081.796875 L 756.453125 1081.796875 Z M 756.453125 1072.492188 " clip-rule="nonzero"/></clipPath><clipPath id="6fe48dc890"><path d="M 1124.839844 1072.492188 C 1192.65625 1072.492188 1247.636719 1074.578125 1247.636719 1077.144531 C 1247.636719 1079.714844 1192.65625 1081.796875 1124.839844 1081.796875 L 879.25 1081.796875 C 811.429688 1081.796875 756.453125 1079.714844 756.453125 1077.144531 C 756.453125 1074.578125 811.429688 1072.492188 879.25 1072.492188 Z M 1124.839844 1072.492188 " clip-rule="nonzero"/></clipPath><clipPath id="b5109c0dc0"><path d="M 0.453125 0.492188 L 491.671875 0.492188 L 491.671875 9.796875 L 0.453125 9.796875 Z M 0.453125 0.492188 " clip-rule="nonzero"/></clipPath><clipPath id="21075bf98f"><path d="M 368.839844 0.492188 C 436.65625 0.492188 491.636719 2.578125 491.636719 5.144531 C 491.636719 7.714844 436.65625 9.796875 368.839844 9.796875 L 123.25 9.796875 C 55.429688 9.796875 0.453125 7.714844 0.453125 5.144531 C 0.453125 2.578125 55.429688 0.492188 123.25 0.492188 Z M 368.839844 0.492188 " clip-rule="nonzero"/></clipPath><clipPath id="ca487ebfc5"><rect x="0" width="492" y="0" height="10"/></clipPath><clipPath id="90151dade0"><path d="M 572.914062 1069.34375 L 584.898438 1069.34375 L 584.898438 1081.328125 L 572.914062 1081.328125 Z M 572.914062 1069.34375 " clip-rule="nonzero"/></clipPath><clipPath id="a4ef78aa0d"><path d="M 269.316406 771 L 286 771 L 286 789 L 269.316406 789 Z M 269.316406 771 " clip-rule="nonzero"/></clipPath><clipPath id="0d07fb32a5"><path d="M 290 758.3125 L 314.859375 758.3125 L 314.859375 784 L 290 784 Z M 290 758.3125 " clip-rule="nonzero"/></clipPath><clipPath id="239381353e"><path d="M 280 788 L 305 788 L 305 812.242188 L 280 812.242188 Z M 280 788 " clip-rule="nonzero"/></clipPath><clipPath id="19c1fb4e10"><rect x="0" width="1418" y="0" height="1500"/></clipPath></defs><rect x="-150" width="1800" fill="#ffffff" y="-149.999993" height="1799.99992" fill-opacity="1"/><rect x="-150" width="1800" fill="#0f2c3a" y="-149.999993" height="1799.99992" fill-opacity="1"/><g transform="matrix(1, 0, 0, 1, 43, 0.000000000000112861)"><g clip-path="url(#19c1fb4e10)"><g fill="#ffffff" fill-opacity="1"><g transform="translate(1.13991, 1036.481414)"><g><path d="M 542.375 -507.5 C 550.957031 -464.269531 556.421875 -412.457031 558.765625 -352.0625 C 559.390625 -306.800781 555.835938 -259.082031 548.109375 -208.90625 C 540.378906 -158.738281 526.453125 -108.609375 506.328125 -58.515625 C 493.523438 -29.023438 478.617188 -0.898438 461.609375 25.859375 C 444.597656 52.628906 424.46875 77.171875 401.21875 99.484375 C 383.269531 117.117188 363.375 131.710938 341.53125 143.265625 C 317.5 156.054688 291.550781 163.660156 263.6875 166.078125 C 235.832031 168.503906 208.367188 164.644531 181.296875 154.5 C 154.222656 144.351562 129.53125 126.875 107.21875 102.0625 C 86.925781 78.5 70.222656 52.59375 57.109375 24.34375 C 27.617188 -40.882812 10.300781 -109.003906 5.15625 -180.015625 C 1.71875 -222.617188 2.648438 -264.789062 7.953125 -306.53125 C 13.265625 -348.28125 23.644531 -389.363281 39.09375 -429.78125 C 45.332031 -446.632812 52.585938 -462.941406 60.859375 -478.703125 C 66.015625 -488.066406 66.484375 -497.507812 62.265625 -507.03125 C 47.910156 -541.363281 39.328125 -577.097656 36.515625 -614.234375 C 34.171875 -650.285156 39.59375 -684.1875 52.78125 -715.9375 C 65.96875 -747.695312 84.421875 -774.734375 108.140625 -797.046875 C 131.867188 -819.367188 158.476562 -834.429688 187.96875 -842.234375 C 259.757812 -860.804688 325.847656 -848.320312 386.234375 -804.78125 C 423.691406 -777.3125 453.421875 -742.976562 475.421875 -701.78125 C 491.804688 -671.195312 505.34375 -639.675781 516.03125 -607.21875 C 526.726562 -574.757812 535.507812 -541.519531 542.375 -507.5 Z M 476.828125 -91.0625 C 490.878906 -130.539062 501.023438 -170.523438 507.265625 -211.015625 C 513.503906 -251.515625 516.9375 -291.976562 517.5625 -332.40625 C 517.5625 -416.519531 506.09375 -497.898438 483.15625 -576.546875 C 475.820312 -600.890625 467.273438 -624.765625 457.515625 -648.171875 C 447.765625 -671.585938 435.867188 -694.0625 421.828125 -715.59375 C 409.023438 -735.570312 394.234375 -753.519531 377.453125 -769.4375 C 360.679688 -785.351562 341.453125 -798.695312 319.765625 -809.46875 C 294.328125 -822.101562 268.925781 -828.34375 243.5625 -828.1875 C 218.207031 -828.03125 193.515625 -819.679688 169.484375 -803.140625 C 138.890625 -782.234375 115.867188 -757.03125 100.421875 -727.53125 C 84.972656 -698.039062 77.953125 -664.722656 79.359375 -627.578125 C 82.785156 -533.160156 120.160156 -454.507812 191.484375 -391.625 C 214.265625 -371.488281 238.53125 -354.007812 264.28125 -339.1875 C 290.03125 -324.363281 317.5 -312.894531 346.6875 -304.78125 C 347.925781 -304.3125 349.25 -303.921875 350.65625 -303.609375 C 353.46875 -303.296875 356.160156 -302.628906 358.734375 -301.609375 C 361.304688 -300.597656 363.609375 -299.078125 365.640625 -297.046875 C 366.734375 -295.960938 367.515625 -294.640625 367.984375 -293.078125 C 368.453125 -291.515625 368.6875 -290.03125 368.6875 -288.625 C 368.375 -287.6875 367.785156 -286.515625 366.921875 -285.109375 C 366.066406 -283.710938 365.09375 -282.703125 364 -282.078125 C 358.226562 -278.953125 352.457031 -278.796875 346.6875 -281.609375 C 337.320312 -285.972656 327.644531 -289.40625 317.65625 -291.90625 C 315.9375 -292.21875 314.453125 -292.53125 313.203125 -292.84375 C 224.878906 -316.5625 153.796875 -364.9375 99.953125 -437.96875 C 99.171875 -439.0625 98.46875 -440.15625 97.84375 -441.25 C 96.75 -443.59375 95.34375 -445.539062 93.625 -447.09375 C 91.914062 -448.65625 89.734375 -449.046875 87.078125 -448.265625 C 85.046875 -447.960938 83.601562 -447.03125 82.75 -445.46875 C 81.894531 -443.90625 81.234375 -442.109375 80.765625 -440.078125 C 80.453125 -438.671875 79.984375 -437.5 79.359375 -436.5625 C 78.265625 -434.070312 77.40625 -431.5 76.78125 -428.84375 C 76.46875 -427.75 75.921875 -426.5 75.140625 -425.09375 C 53.609375 -363.300781 42.488281 -301.425781 41.78125 -239.46875 C 41.082031 -177.507812 50.019531 -115.320312 68.59375 -52.90625 C 74.988281 -30.582031 82.90625 -9.046875 92.34375 11.703125 C 101.789062 32.460938 113.222656 52.28125 126.640625 71.15625 C 142.398438 93.476562 161.984375 111.738281 185.390625 125.9375 C 219.097656 146.539062 254.445312 149.972656 291.4375 136.234375 C 312.8125 127.648438 332.394531 116.101562 350.1875 101.59375 C 367.351562 87.550781 382.804688 71.945312 396.546875 54.78125 C 414.015625 32.769531 429.378906 9.515625 442.640625 -14.984375 C 455.910156 -39.484375 467.304688 -64.84375 476.828125 -91.0625 Z M 476.828125 -91.0625 "/></g></g><g transform="translate(592.200552, 1036.481414)"><g/></g><g transform="translate(711.114933, 1036.481414)"><g><path d="M 264.859375 -120.3125 C 260.578125 -107.207031 252.078125 -92.1875 239.359375 -75.25 C 226.640625 -58.320312 210.757812 -47.4375 191.71875 -42.59375 C 172.675781 -37.757812 156.207031 -38.425781 142.3125 -44.59375 C 128.425781 -50.757812 120.785156 -67.265625 119.390625 -94.109375 C 103.617188 -63.515625 88.59375 -43.925781 74.3125 -35.34375 C 60.039062 -26.757812 45.179688 -23.484375 29.734375 -25.515625 C 12.253906 -28.328125 0.429688 -35.113281 -5.734375 -45.875 C -11.898438 -56.644531 -13.96875 -69.09375 -11.9375 -83.21875 C -9.90625 -97.34375 -5.613281 -110.878906 0.9375 -123.828125 C 6.082031 -133.503906 13.21875 -142.476562 22.34375 -150.75 C 31.476562 -159.019531 41.039062 -165.5 51.03125 -170.1875 C 63.351562 -176.425781 75.757812 -179.390625 88.25 -179.078125 C 100.738281 -178.765625 114.082031 -174.628906 128.28125 -166.671875 C 128.59375 -166.359375 128.75 -166.671875 128.75 -167.609375 C 128.75 -169.015625 129.097656 -170.769531 129.796875 -172.875 C 130.503906 -174.976562 131.710938 -176.65625 133.421875 -177.90625 C 138.109375 -181.332031 143.648438 -183.046875 150.046875 -183.046875 C 156.441406 -183.046875 161.359375 -179.847656 164.796875 -173.453125 C 165.421875 -165.179688 164.5625 -154.648438 162.21875 -141.859375 C 157.070312 -113.765625 157.070312 -93.550781 162.21875 -81.21875 C 167.375 -68.894531 176.460938 -63.160156 189.484375 -64.015625 C 202.515625 -64.878906 219.40625 -77.753906 240.15625 -102.640625 C 260.914062 -127.535156 269.148438 -133.425781 264.859375 -120.3125 Z M 34.40625 -54.3125 C 41.582031 -49.15625 49.8125 -49.851562 59.09375 -56.40625 C 68.382812 -62.96875 77.320312 -72.253906 85.90625 -84.265625 C 94.488281 -96.285156 101.707031 -108.300781 107.5625 -120.3125 C 113.414062 -132.332031 116.65625 -141.226562 117.28125 -147 C 99.800781 -156.363281 84.816406 -157.960938 72.328125 -151.796875 C 59.847656 -145.640625 49.898438 -135.578125 42.484375 -121.609375 C 35.078125 -107.640625 30.671875 -94.0625 29.265625 -80.875 C 27.859375 -67.6875 29.570312 -58.832031 34.40625 -54.3125 Z M 34.40625 -54.3125 "/></g></g><g transform="translate(959.243363, 1036.481414)"><g><path d="M 169.015625 -109.078125 C 171.660156 -115.484375 174.546875 -118.6875 177.671875 -118.6875 C 180.796875 -118.6875 181.8125 -115.484375 180.71875 -109.078125 C 175.5625 -93.160156 169.394531 -77.90625 162.21875 -63.3125 C 155.039062 -48.726562 145.285156 -35.660156 132.953125 -24.109375 C 123.597656 -14.742188 112.441406 -8.738281 99.484375 -6.09375 C 81.847656 -3.59375 67.296875 -5.695312 55.828125 -12.40625 C 44.359375 -19.113281 35.269531 -28.75 28.5625 -41.3125 C 21.851562 -53.875 16.859375 -67.609375 13.578125 -82.515625 C 10.296875 -97.421875 8.1875 -111.894531 7.25 -125.9375 C 4.757812 -152.46875 2.925781 -187.347656 1.75 -230.578125 C 0.582031 -273.804688 1.015625 -319.53125 3.046875 -367.75 C 5.078125 -415.96875 9.796875 -460.675781 17.203125 -501.875 C 24.617188 -543.070312 35.503906 -574.988281 49.859375 -597.625 C 58.128906 -608.695312 67.765625 -614.3125 78.765625 -614.46875 C 89.765625 -614.625 99.554688 -609.554688 108.140625 -599.265625 C 113.921875 -591.296875 118.289062 -582.863281 121.25 -573.96875 C 124.21875 -565.082031 126.171875 -556.035156 127.109375 -546.828125 C 130.234375 -515.140625 129.84375 -481.703125 125.9375 -446.515625 C 122.03125 -411.328125 115.863281 -373.753906 107.4375 -333.796875 C 99.007812 -293.847656 88.941406 -258.660156 77.234375 -228.234375 C 65.535156 -197.804688 55.785156 -173.695312 47.984375 -155.90625 C 43.773438 -148.71875 42.21875 -137.867188 43.3125 -123.359375 C 44.707031 -107.597656 47.707031 -91.132812 52.3125 -73.96875 C 56.914062 -56.800781 63.351562 -43.222656 71.625 -33.234375 C 79.425781 -24.960938 88.164062 -22.390625 97.84375 -25.515625 C 107.519531 -28.640625 117.15625 -35.191406 126.75 -45.171875 C 136.351562 -55.160156 144.820312 -66.046875 152.15625 -77.828125 C 159.488281 -89.609375 165.109375 -100.023438 169.015625 -109.078125 Z M 44.234375 -348.546875 C 43.304688 -338.253906 42.410156 -322.691406 41.546875 -301.859375 C 40.691406 -281.023438 39.875 -259.835938 39.09375 -238.296875 C 38.46875 -214.265625 37.765625 -195.539062 36.984375 -182.125 C 44.628906 -199.289062 53.523438 -224.257812 63.671875 -257.03125 C 73.816406 -289.800781 83.0625 -328.421875 91.40625 -372.890625 C 99.757812 -417.367188 105.179688 -465.515625 107.671875 -517.328125 C 106.273438 -547.597656 102.648438 -568.117188 96.796875 -578.890625 C 90.941406 -589.660156 84.582031 -590.597656 77.71875 -581.703125 C 70.851562 -572.804688 65.390625 -554.078125 61.328125 -525.515625 C 55.085938 -478.234375 50.25 -430.875 46.8125 -383.4375 C 45.875 -371.726562 45.015625 -360.097656 44.234375 -348.546875 Z M 44.234375 -348.546875 "/></g></g><g transform="translate(1125.676677, 1036.481414)"><g/></g><g transform="translate(1244.591057, 1036.481414)"><g><path d="M 168.546875 -118.6875 C 170.566406 -118.375 170.289062 -113.847656 167.71875 -105.109375 C 165.144531 -96.367188 160.695312 -85.988281 154.375 -73.96875 C 148.0625 -61.957031 140.414062 -50.878906 131.4375 -40.734375 C 122.46875 -30.585938 112.597656 -23.875 101.828125 -20.59375 C 91.054688 -17.320312 79.820312 -19.976562 68.125 -28.5625 C 59.226562 -36.519531 51.5 -45.492188 44.9375 -55.484375 C 43.539062 -56.878906 42.53125 -58.203125 41.90625 -59.453125 C 39.71875 -63.359375 37.6875 -65.738281 35.8125 -66.59375 C 33.9375 -67.457031 30.972656 -65.9375 26.921875 -62.03125 C 26.140625 -61.40625 25.28125 -60.78125 24.34375 -60.15625 C 17.789062 -54.226562 11.238281 -48.222656 4.6875 -42.140625 C -1.875 -35.890625 -9.445312 -32.921875 -18.03125 -33.234375 C -19.738281 -33.234375 -21.53125 -33.503906 -23.40625 -34.046875 C -25.28125 -34.597656 -26.6875 -35.578125 -27.625 -36.984375 C -28.71875 -38.234375 -29.109375 -39.832031 -28.796875 -41.78125 C -28.484375 -43.726562 -27.625 -45.328125 -26.21875 -46.578125 C -21.070312 -52.203125 -15.921875 -57.585938 -10.765625 -62.734375 C -9.046875 -64.453125 -7.488281 -66.171875 -6.09375 -67.890625 C -3.75 -69.910156 -1.484375 -72.09375 0.703125 -74.4375 C 7.566406 -81.613281 12.285156 -87.191406 14.859375 -91.171875 C 17.441406 -95.148438 18.378906 -99.441406 17.671875 -104.046875 C 16.972656 -108.648438 15.0625 -115.476562 11.9375 -124.53125 C 7.414062 -137.488281 3.4375 -150.675781 0 -164.09375 C -2.03125 -174.082031 0.539062 -180.09375 7.71875 -182.125 C 12.25 -183.519531 16.382812 -183.4375 20.125 -181.875 C 23.875 -180.320312 26.84375 -177.671875 29.03125 -173.921875 C 31.050781 -169.398438 32.765625 -164.953125 34.171875 -160.578125 C 34.796875 -158.085938 35.65625 -155.671875 36.75 -153.328125 C 36.75 -152.546875 36.90625 -152 37.21875 -151.6875 C 38.9375 -146.851562 40.65625 -142.25 42.375 -137.875 C 43.769531 -135.375 45.484375 -134.046875 47.515625 -133.890625 C 49.546875 -133.734375 51.578125 -134.671875 53.609375 -136.703125 C 60.472656 -145.285156 67.179688 -154.101562 73.734375 -163.15625 C 78.890625 -170.957031 85.445312 -177.125 93.40625 -181.65625 C 97.457031 -183.675781 101.90625 -184.6875 106.75 -184.6875 C 110.800781 -184.6875 112.984375 -182.425781 113.296875 -177.90625 C 113.296875 -170.101562 110.722656 -163.46875 105.578125 -158 C 102.609375 -153.789062 99.5625 -149.65625 96.4375 -145.59375 C 87.539062 -133.269531 78.101562 -121.410156 68.125 -110.015625 C 63.90625 -105.179688 61.796875 -100.695312 61.796875 -96.5625 C 61.796875 -92.425781 63.359375 -87.78125 66.484375 -82.625 C 74.128906 -69.675781 81.695312 -59.847656 89.1875 -53.140625 C 96.675781 -46.429688 104.554688 -44.441406 112.828125 -47.171875 C 121.097656 -49.898438 130.070312 -58.988281 139.75 -74.4375 C 140.6875 -76.15625 142.171875 -78.882812 144.203125 -82.625 C 146.691406 -87.46875 149.457031 -92.660156 152.5 -98.203125 C 155.550781 -103.742188 158.554688 -108.460938 161.515625 -112.359375 C 164.484375 -116.265625 166.828125 -118.375 168.546875 -118.6875 Z M 168.546875 -118.6875 "/></g></g></g><g transform="matrix(1, 0, 0, 1, 648, 1080)"><g clip-path="url(#15e98e0e7d)"><g fill="#ffffff" fill-opacity="1"><g transform="translate(1.595045, 120.828986)"><g><path d="M 8.765625 -7.078125 C 10.023438 -15.128906 10.695312 -28.460938 10.78125 -47.078125 L 10.78125 -50.84375 C 10.78125 -67.550781 10.238281 -79.910156 9.15625 -87.921875 C 14.476562 -88.960938 20.972656 -89.484375 28.640625 -89.484375 C 36.296875 -89.484375 42.875 -88.734375 48.375 -87.234375 C 53.875 -85.742188 58.90625 -83.332031 63.46875 -80 C 68.039062 -76.664062 71.59375 -71.988281 74.125 -65.96875 C 76.65625 -59.957031 77.921875 -52.726562 77.921875 -44.28125 C 77.921875 -30.988281 74.367188 -20.066406 67.265625 -11.515625 C 60.171875 -2.972656 50.347656 1.296875 37.796875 1.296875 C 25.191406 1.296875 15.515625 -1.492188 8.765625 -7.078125 Z M 20.328125 -80.84375 C 20.710938 -74.738281 20.90625 -64.695312 20.90625 -50.71875 C 20.90625 -36.6875 20.28125 -23.632812 19.03125 -11.5625 C 23.789062 -8.351562 29.332031 -6.75 35.65625 -6.75 C 41.925781 -6.75 47.109375 -7.820312 51.203125 -9.96875 C 55.296875 -12.113281 58.441406 -15.003906 60.640625 -18.640625 C 64.710938 -25.347656 66.75 -33.007812 66.75 -41.625 C 66.75 -54.820312 63.46875 -64.742188 56.90625 -71.390625 C 50.351562 -78.035156 40.992188 -81.359375 28.828125 -81.359375 C 26.878906 -81.359375 24.046875 -81.1875 20.328125 -80.84375 Z M 20.328125 -80.84375 "/></g></g></g><g fill="#ffffff" fill-opacity="1"><g transform="translate(88.402886, 120.828986)"><g><path d="M 35.65625 -63.1875 C 41.84375 -63.1875 46.863281 -61.429688 50.71875 -57.921875 C 54.570312 -54.410156 56.5 -50.625 56.5 -46.5625 C 56.5 -42.488281 55.878906 -39.289062 54.640625 -36.96875 C 53.410156 -34.65625 51.796875 -32.835938 49.796875 -31.515625 C 47.804688 -30.203125 44.953125 -29.175781 41.234375 -28.4375 C 35.566406 -27.394531 27.0625 -26.875 15.71875 -26.875 C 16.40625 -20.46875 18.316406 -15.40625 21.453125 -11.6875 C 24.597656 -7.96875 29.285156 -6.109375 35.515625 -6.109375 C 41.703125 -6.109375 46.097656 -8.421875 48.703125 -13.046875 C 52.203125 -11.617188 53.953125 -9.671875 53.953125 -7.203125 C 53.953125 -4.691406 51.9375 -2.644531 47.90625 -1.0625 C 43.882812 0.507812 39.390625 1.296875 34.421875 1.296875 C 26.109375 1.296875 19.285156 -1.332031 13.953125 -6.59375 C 8.628906 -11.851562 5.96875 -19.785156 5.96875 -30.390625 C 5.96875 -40.992188 8.921875 -49.109375 14.828125 -54.734375 C 20.742188 -60.367188 27.6875 -63.1875 35.65625 -63.1875 Z M 35.125 -55.84375 C 29.800781 -55.84375 25.253906 -54.023438 21.484375 -50.390625 C 17.722656 -46.753906 15.753906 -41.125 15.578125 -33.5 C 28.222656 -33.5 36.644531 -34.429688 40.84375 -36.296875 C 42.613281 -37.117188 44.140625 -38.273438 45.421875 -39.765625 C 46.703125 -41.265625 47.34375 -43.289062 47.34375 -45.84375 C 47.34375 -48.351562 46.171875 -50.644531 43.828125 -52.71875 C 41.492188 -54.800781 38.59375 -55.84375 35.125 -55.84375 Z M 35.125 -55.84375 "/></g></g></g><g fill="#ffffff" fill-opacity="1"><g transform="translate(153.328044, 120.828986)"><g><path d="M 49.34375 -6.359375 L 50.125 -40.84375 C 50.125 -45.78125 48.898438 -49.492188 46.453125 -51.984375 C 44.015625 -54.472656 40.890625 -55.71875 37.078125 -55.71875 C 31.054688 -55.71875 25.125 -53.269531 19.28125 -48.375 C 19.457031 -36.34375 19.546875 -26.796875 19.546875 -19.734375 C 19.546875 -12.679688 19.804688 -6.144531 20.328125 -0.125 C 18.941406 0.132812 17.445312 0.265625 15.84375 0.265625 C 11.863281 0.265625 9.875 -1.425781 9.875 -4.8125 C 9.875 -5.15625 9.976562 -8.410156 10.1875 -14.578125 C 10.40625 -20.742188 10.515625 -26.878906 10.515625 -32.984375 C 10.515625 -47.523438 9.671875 -56.921875 7.984375 -61.171875 C 9.765625 -61.859375 11.367188 -62.203125 12.796875 -62.203125 C 16.859375 -62.203125 18.890625 -59.992188 18.890625 -55.578125 C 21.535156 -57.617188 24.945312 -59.394531 29.125 -60.90625 C 33.300781 -62.425781 37.707031 -63.1875 42.34375 -63.1875 C 46.925781 -63.1875 50.875 -61.703125 54.1875 -58.734375 C 57.5 -55.765625 59.15625 -50.992188 59.15625 -44.421875 L 58.765625 -20.71875 C 58.765625 -12.570312 59.519531 -5.882812 61.03125 -0.65625 C 59.257812 0.0390625 57.378906 0.390625 55.390625 0.390625 C 53.398438 0.390625 51.894531 -0.113281 50.875 -1.125 C 49.851562 -2.144531 49.34375 -3.890625 49.34375 -6.359375 Z M 49.34375 -6.359375 "/></g></g></g><g fill="#ffffff" fill-opacity="1"><g transform="translate(224.74659, 120.828986)"><g><path d="M 12.796875 -54.671875 C 12.492188 -54.671875 8.359375 -54.347656 0.390625 -53.703125 C 0.128906 -54.523438 0 -55.800781 0 -57.53125 C 0 -59.257812 0.660156 -60.40625 1.984375 -60.96875 C 3.304688 -61.53125 5.566406 -61.8125 8.765625 -61.8125 L 12.53125 -61.8125 C 12.3125 -67.789062 12.03125 -72.769531 11.6875 -76.75 C 13.03125 -77.007812 14.503906 -77.140625 16.109375 -77.140625 C 20.347656 -77.140625 22.46875 -75.453125 22.46875 -72.078125 C 22.46875 -70.816406 22.296875 -67.351562 21.953125 -61.6875 C 33.203125 -61.6875 40.644531 -61.925781 44.28125 -62.40625 C 44.625 -61.664062 44.796875 -60.515625 44.796875 -58.953125 C 44.796875 -57.398438 44.332031 -56.316406 43.40625 -55.703125 C 42.476562 -55.097656 40.75 -54.753906 38.21875 -54.671875 C 35.6875 -54.585938 30.175781 -54.546875 21.6875 -54.546875 C 21.507812 -44.929688 21.421875 -35.601562 21.421875 -26.5625 C 21.421875 -17.46875 22.285156 -11.71875 24.015625 -9.3125 C 25.753906 -6.914062 28.550781 -5.71875 32.40625 -5.71875 C 36.257812 -5.71875 39.503906 -7.054688 42.140625 -9.734375 C 43.742188 -8.046875 44.546875 -6.359375 44.546875 -4.671875 C 44.546875 -2.984375 43.394531 -1.566406 41.09375 -0.421875 C 38.800781 0.722656 36.015625 1.296875 32.734375 1.296875 C 25.367188 1.296875 20.160156 -0.820312 17.109375 -5.0625 C 14.054688 -9.300781 12.53125 -15.644531 12.53125 -24.09375 C 12.707031 -40.101562 12.796875 -50.296875 12.796875 -54.671875 Z M 12.796875 -54.671875 "/></g></g></g><g fill="#ffffff" fill-opacity="1"><g transform="translate(273.957764, 120.828986)"><g><path d="M 52.140625 -41.5 L 51.875 -23.5 C 51.875 -13.332031 52.722656 -5.71875 54.421875 -0.65625 C 52.984375 0.0390625 51.269531 0.390625 49.28125 0.390625 C 47.289062 0.390625 45.894531 -0.0703125 45.09375 -1 C 44.289062 -1.9375 43.757812 -3.421875 43.5 -5.453125 C 38.007812 -0.953125 32.34375 1.296875 26.5 1.296875 C 12.8125 1.296875 5.96875 -4.9375 5.96875 -17.40625 C 5.96875 -21.945312 7.03125 -25.273438 9.15625 -27.390625 C 11.28125 -29.515625 14.203125 -31.117188 17.921875 -32.203125 C 24.585938 -33.984375 33.03125 -35.175781 43.25 -35.78125 C 43.25 -43.3125 42.316406 -48.515625 40.453125 -51.390625 C 38.585938 -54.273438 34.628906 -55.71875 28.578125 -55.71875 C 26.109375 -55.71875 23.539062 -54.914062 20.875 -53.3125 C 18.207031 -51.707031 16.207031 -49.410156 14.875 -46.421875 C 10.800781 -47.203125 8.765625 -48.976562 8.765625 -51.75 C 8.765625 -55.21875 10.894531 -57.988281 15.15625 -60.0625 C 19.425781 -62.144531 24.894531 -63.1875 31.5625 -63.1875 C 38.1875 -63.1875 43.269531 -61.601562 46.8125 -58.4375 C 50.363281 -55.28125 52.140625 -49.632812 52.140625 -41.5 Z M 43.109375 -28.953125 C 40.515625 -28.703125 38.578125 -28.488281 37.296875 -28.3125 C 36.023438 -28.132812 34.296875 -27.914062 32.109375 -27.65625 C 29.921875 -27.394531 28.296875 -27.132812 27.234375 -26.875 C 26.179688 -26.625 24.882812 -26.269531 23.34375 -25.8125 C 21.800781 -25.351562 20.648438 -24.851562 19.890625 -24.3125 C 19.140625 -23.769531 18.351562 -23.195312 17.53125 -22.59375 C 16.0625 -21.34375 15.328125 -19.613281 15.328125 -17.40625 C 15.328125 -13.414062 16.472656 -10.46875 18.765625 -8.5625 C 21.054688 -6.664062 23.976562 -5.71875 27.53125 -5.71875 C 33.550781 -5.71875 38.640625 -7.707031 42.796875 -11.6875 C 42.703125 -12.945312 42.65625 -15.21875 42.65625 -18.5 C 42.65625 -21.75 42.804688 -25.234375 43.109375 -28.953125 Z M 43.109375 -28.953125 "/></g></g></g><g fill="#ffffff" fill-opacity="1"><g transform="translate(338.038794, 120.828986)"><g><path d="M 8.765625 -6.5 L 9.03125 -44.546875 L 9.03125 -60 C 9.03125 -80.90625 8.679688 -93.71875 7.984375 -98.4375 C 9.410156 -98.695312 10.96875 -98.828125 12.65625 -98.828125 C 16.726562 -98.828125 18.765625 -97.140625 18.765625 -93.765625 C 18.765625 -93.421875 18.722656 -91.0625 18.640625 -86.6875 C 18.078125 -70.582031 17.796875 -57.550781 17.796875 -47.59375 L 17.796875 -26.875 C 17.796875 -15.0625 18.640625 -6.320312 20.328125 -0.65625 C 18.722656 0.0390625 16.859375 0.390625 14.734375 0.390625 C 12.617188 0.390625 11.09375 -0.140625 10.15625 -1.203125 C 9.226562 -2.265625 8.765625 -4.03125 8.765625 -6.5 Z M 8.765625 -6.5 "/></g></g></g><g fill="#ffffff" fill-opacity="1"><g transform="translate(368.743841, 120.828986)"><g/></g></g><g fill="#ffffff" fill-opacity="1"><g transform="translate(404.124119, 120.828986)"><g><path d="M 68.375 -17.796875 C 72.269531 -16.234375 74.21875 -13.957031 74.21875 -10.96875 C 74.21875 -7.988281 71.6875 -5.195312 66.625 -2.59375 C 61.5625 0 55.304688 1.296875 47.859375 1.296875 C 35.390625 1.296875 25.378906 -2.890625 17.828125 -11.265625 C 10.273438 -19.640625 6.5 -30.773438 6.5 -44.671875 C 6.5 -58.523438 10.273438 -69.457031 17.828125 -77.46875 C 25.378906 -85.476562 35.5625 -89.484375 48.375 -89.484375 C 55.300781 -89.484375 61.113281 -88.085938 65.8125 -85.296875 C 70.507812 -82.503906 72.859375 -79.070312 72.859375 -75 C 72.859375 -71.363281 70.347656 -69.15625 65.328125 -68.375 C 63.640625 -72.707031 60.972656 -75.953125 57.328125 -78.109375 C 53.691406 -80.273438 49.84375 -81.359375 45.78125 -81.359375 C 37.425781 -81.359375 30.609375 -78.054688 25.328125 -71.453125 C 20.046875 -64.859375 17.40625 -56.28125 17.40625 -45.71875 C 17.40625 -35.101562 20.066406 -25.953125 25.390625 -18.265625 C 30.710938 -10.585938 38.15625 -6.75 47.71875 -6.75 C 52.007812 -6.75 55.992188 -7.679688 59.671875 -9.546875 C 63.347656 -11.410156 66.25 -14.160156 68.375 -17.796875 Z M 68.375 -17.796875 "/></g></g></g><g fill="#ffffff" fill-opacity="1"><g transform="translate(486.581408, 120.828986)"><g><path d="M 52.140625 -41.5 L 51.875 -23.5 C 51.875 -13.332031 52.722656 -5.71875 54.421875 -0.65625 C 52.984375 0.0390625 51.269531 0.390625 49.28125 0.390625 C 47.289062 0.390625 45.894531 -0.0703125 45.09375 -1 C 44.289062 -1.9375 43.757812 -3.421875 43.5 -5.453125 C 38.007812 -0.953125 32.34375 1.296875 26.5 1.296875 C 12.8125 1.296875 5.96875 -4.9375 5.96875 -17.40625 C 5.96875 -21.945312 7.03125 -25.273438 9.15625 -27.390625 C 11.28125 -29.515625 14.203125 -31.117188 17.921875 -32.203125 C 24.585938 -33.984375 33.03125 -35.175781 43.25 -35.78125 C 43.25 -43.3125 42.316406 -48.515625 40.453125 -51.390625 C 38.585938 -54.273438 34.628906 -55.71875 28.578125 -55.71875 C 26.109375 -55.71875 23.539062 -54.914062 20.875 -53.3125 C 18.207031 -51.707031 16.207031 -49.410156 14.875 -46.421875 C 10.800781 -47.203125 8.765625 -48.976562 8.765625 -51.75 C 8.765625 -55.21875 10.894531 -57.988281 15.15625 -60.0625 C 19.425781 -62.144531 24.894531 -63.1875 31.5625 -63.1875 C 38.1875 -63.1875 43.269531 -61.601562 46.8125 -58.4375 C 50.363281 -55.28125 52.140625 -49.632812 52.140625 -41.5 Z M 43.109375 -28.953125 C 40.515625 -28.703125 38.578125 -28.488281 37.296875 -28.3125 C 36.023438 -28.132812 34.296875 -27.914062 32.109375 -27.65625 C 29.921875 -27.394531 28.296875 -27.132812 27.234375 -26.875 C 26.179688 -26.625 24.882812 -26.269531 23.34375 -25.8125 C 21.800781 -25.351562 20.648438 -24.851562 19.890625 -24.3125 C 19.140625 -23.769531 18.351562 -23.195312 17.53125 -22.59375 C 16.0625 -21.34375 15.328125 -19.613281 15.328125 -17.40625 C 15.328125 -13.414062 16.472656 -10.46875 18.765625 -8.5625 C 21.054688 -6.664062 23.976562 -5.71875 27.53125 -5.71875 C 33.550781 -5.71875 38.640625 -7.707031 42.796875 -11.6875 C 42.703125 -12.945312 42.65625 -15.21875 42.65625 -18.5 C 42.65625 -21.75 42.804688 -25.234375 43.109375 -28.953125 Z M 43.109375 -28.953125 "/></g></g></g><g fill="#ffffff" fill-opacity="1"><g transform="translate(550.662415, 120.828986)"><g><path d="M 8.640625 -7.203125 L 8.890625 -30.71875 C 8.890625 -43.394531 8.585938 -53.757812 7.984375 -61.8125 C 9.410156 -62.070312 10.925781 -62.203125 12.53125 -62.203125 C 16.34375 -62.203125 18.25 -60.535156 18.25 -57.203125 C 18.25 -57.035156 18.222656 -56.429688 18.171875 -55.390625 C 18.128906 -54.347656 18.109375 -53.394531 18.109375 -52.53125 C 19.847656 -55.257812 22.207031 -57.71875 25.1875 -59.90625 C 28.175781 -62.09375 30.90625 -63.1875 33.375 -63.1875 C 38.175781 -63.1875 40.578125 -61.453125 40.578125 -57.984375 C 40.578125 -56.296875 39.691406 -54.304688 37.921875 -52.015625 C 35.972656 -53.703125 33.804688 -54.546875 31.421875 -54.546875 C 29.003906 -54.546875 26.550781 -53.570312 24.0625 -51.625 C 21.570312 -49.675781 19.484375 -47.097656 17.796875 -43.890625 C 17.703125 -40.859375 17.65625 -34.300781 17.65625 -24.21875 C 17.65625 -14.09375 18.5 -6.238281 20.1875 -0.65625 C 18.59375 0.0390625 16.710938 0.390625 14.546875 0.390625 C 12.378906 0.390625 10.851562 -0.179688 9.96875 -1.328125 C 9.082031 -2.472656 8.640625 -4.429688 8.640625 -7.203125 Z M 8.640625 -7.203125 "/></g></g></g><g fill="#ffffff" fill-opacity="1"><g transform="translate(594.938644, 120.828986)"><g><path d="M 35.65625 -63.1875 C 41.84375 -63.1875 46.863281 -61.429688 50.71875 -57.921875 C 54.570312 -54.410156 56.5 -50.625 56.5 -46.5625 C 56.5 -42.488281 55.878906 -39.289062 54.640625 -36.96875 C 53.410156 -34.65625 51.796875 -32.835938 49.796875 -31.515625 C 47.804688 -30.203125 44.953125 -29.175781 41.234375 -28.4375 C 35.566406 -27.394531 27.0625 -26.875 15.71875 -26.875 C 16.40625 -20.46875 18.316406 -15.40625 21.453125 -11.6875 C 24.597656 -7.96875 29.285156 -6.109375 35.515625 -6.109375 C 41.703125 -6.109375 46.097656 -8.421875 48.703125 -13.046875 C 52.203125 -11.617188 53.953125 -9.671875 53.953125 -7.203125 C 53.953125 -4.691406 51.9375 -2.644531 47.90625 -1.0625 C 43.882812 0.507812 39.390625 1.296875 34.421875 1.296875 C 26.109375 1.296875 19.285156 -1.332031 13.953125 -6.59375 C 8.628906 -11.851562 5.96875 -19.785156 5.96875 -30.390625 C 5.96875 -40.992188 8.921875 -49.109375 14.828125 -54.734375 C 20.742188 -60.367188 27.6875 -63.1875 35.65625 -63.1875 Z M 35.125 -55.84375 C 29.800781 -55.84375 25.253906 -54.023438 21.484375 -50.390625 C 17.722656 -46.753906 15.753906 -41.125 15.578125 -33.5 C 28.222656 -33.5 36.644531 -34.429688 40.84375 -36.296875 C 42.613281 -37.117188 44.140625 -38.273438 45.421875 -39.765625 C 46.703125 -41.265625 47.34375 -43.289062 47.34375 -45.84375 C 47.34375 -48.351562 46.171875 -50.644531 43.828125 -52.71875 C 41.492188 -54.800781 38.59375 -55.84375 35.125 -55.84375 Z M 35.125 -55.84375 "/></g></g></g></g></g><g clip-path="url(#aa92bf840e)"><path fill="#ffffff" d="M 315.855469 725.683594 L 326.738281 725.683594 C 336.144531 726.808594 342.65625 727.761719 350.566406 730.574219 C 372.59375 738.402344 387.984375 754.300781 394.234375 777.03125 C 395.285156 780.851562 395.78125 785.152344 396.386719 789.253906 L 396.386719 798.390625 C 395.78125 800.917969 395.707031 803.757812 395.242188 805.976562 C 391.277344 824.695312 383.144531 842.488281 375.769531 860.058594 C 363.320312 889.730469 354.097656 919.980469 351.636719 952.226562 C 350.425781 968.066406 349.707031 982 348.800781 995.054688 C 347.730469 1010.324219 345.324219 1025.375 341.578125 1040.210938 C 334.761719 1067.226562 321.804688 1091.71875 301.015625 1110.535156 C 300.972656 1110.59375 300.921875 1110.597656 300.867188 1110.558594 C 300.808594 1110.515625 300.804688 1110.464844 300.84375 1110.410156 C 309.136719 1094.152344 314.363281 1076.269531 315.476562 1058.015625 C 315.609375 1055.859375 316.167969 1053.8125 316.136719 1051.6875 C 316.082031 1047.800781 316.636719 1043.574219 316.679688 1040.140625 C 316.769531 1032.101562 316.75 1026.761719 316.625 1024.121094 C 314.539062 980.847656 306.800781 941.894531 307.707031 900.394531 C 307.894531 891.691406 308.851562 881.902344 310.578125 871.023438 C 312.496094 858.9375 315.5625 847.15625 319.777344 835.683594 C 322.75 827.589844 325.0625 820.949219 326.707031 815.765625 C 331.234375 801.550781 332.585938 786.355469 330.578125 771.085938 C 326.742188 741.78125 307.066406 741.125 283.609375 748.199219 C 262.828125 754.453125 245.429688 768.65625 222.953125 769.945312 C 218.246094 770.210938 210.046875 769.421875 202.972656 770.351562 C 201.179688 770.585938 199.390625 770.8125 197.605469 771.035156 C 181.078125 773.070312 165.90625 780.699219 159.214844 796.765625 C 154.652344 807.695312 154.011719 821.367188 155.820312 832.816406 C 159.074219 853.410156 167.1875 875.710938 171.464844 891.582031 C 176.484375 910.183594 180.085938 929.0625 181.742188 948.261719 C 182.324219 955.054688 183.113281 962 183.175781 968.796875 C 183.332031 983.28125 183.0625 997.816406 183.558594 1012.285156 C 184.105469 1028.148438 185.59375 1043.925781 188.027344 1059.625 C 190.394531 1074.964844 194.714844 1089.71875 200.988281 1103.890625 C 202.292969 1106.835938 203.777344 1109.675781 205.445312 1112.414062 C 205.496094 1112.476562 205.488281 1112.53125 205.429688 1112.582031 C 205.367188 1112.632812 205.3125 1112.628906 205.261719 1112.570312 C 186.910156 1097.550781 174.070312 1078.710938 166.738281 1056.050781 C 159.882812 1034.867188 156.292969 1012.890625 154.828125 990.691406 C 153.984375 977.933594 153.015625 965.179688 152.09375 952.429688 C 150.042969 923.90625 143.851562 896.847656 134.714844 871.582031 C 130.601562 860.207031 126.449219 848.847656 122.257812 837.496094 C 119.03125 828.769531 116.800781 821.058594 115.566406 814.367188 C 112.75 799.109375 115.835938 780.992188 124.871094 768.394531 C 141.640625 744.996094 171.707031 754.082031 194.558594 758.839844 C 201.792969 760.339844 209.089844 761.074219 216.457031 761.042969 C 229.722656 760.976562 240.722656 756.980469 252.34375 750.367188 C 258.058594 747.113281 263.769531 743.851562 269.480469 740.574219 C 283.882812 732.308594 299.34375 727.34375 315.855469 725.683594 Z M 315.855469 725.683594 " fill-opacity="1" fill-rule="nonzero"/></g><path fill="#ffffff" d="M 238.867188 887.472656 C 245.375 885.796875 252.773438 891.5625 256.707031 896.15625 C 267.214844 908.402344 273.792969 922.140625 279.234375 938.445312 C 288.15625 965.195312 293.222656 994.019531 295.582031 1023.226562 C 295.640625 1024.007812 295.824219 1025.859375 296.128906 1028.785156 C 296.46875 1032.011719 296.335938 1035.226562 296.722656 1038.394531 C 296.933594 1040.128906 297.050781 1041.472656 297.074219 1042.417969 C 297.367188 1055.59375 297.699219 1069.007812 296.765625 1082.144531 C 296.523438 1085.535156 296.320312 1088.921875 296.152344 1092.316406 C 296.148438 1092.464844 296.070312 1092.535156 295.917969 1092.527344 C 295.859375 1092.523438 295.800781 1092.519531 295.742188 1092.519531 C 295.644531 1092.519531 295.589844 1092.46875 295.582031 1092.371094 C 295.050781 1087.160156 293.792969 1076.609375 291.800781 1060.722656 C 289.375 1041.355469 275.355469 948.890625 251.179688 945.441406 C 221.003906 941.140625 211.152344 1075.523438 209.847656 1094.558594 C 209.675781 1097.121094 209.472656 1097.125 209.238281 1094.566406 C 206.878906 1068.789062 206.761719 1042.898438 207.851562 1016.6875 C 208.75 995.113281 210.523438 972.394531 213.789062 950.515625 C 215.765625 937.285156 218.730469 924.285156 222.679688 911.511719 C 225.023438 903.925781 230.222656 889.695312 238.867188 887.472656 Z M 238.867188 887.472656 " fill-opacity="1" fill-rule="nonzero"/><g fill="#ffffff" fill-opacity="1"><g transform="translate(565.706426, 1045.550396)"><g><path d="M 35 -205.671875 C 29.5625 -199.597656 26.363281 -196.5625 25.40625 -196.5625 C 24.445312 -196.5625 24.609375 -198.316406 25.890625 -201.828125 C 27.171875 -205.023438 29.25 -209.34375 32.125 -214.78125 C 35 -219.882812 37.710938 -224.835938 40.265625 -229.640625 C 42.828125 -234.109375 44.90625 -237.78125 46.5 -240.65625 C 47.78125 -243.21875 47.78125 -243.539062 46.5 -241.625 C 49.695312 -246.09375 53.851562 -248.804688 58.96875 -249.765625 C 64.082031 -250.722656 68.875 -250.882812 73.34375 -250.25 C 78.78125 -249.289062 84.375 -247.691406 90.125 -245.453125 L 35.46875 -107.859375 C 37.070312 -112.972656 40.429688 -120.96875 45.546875 -131.84375 C 50.335938 -142.707031 56.410156 -154.847656 63.765625 -168.265625 C 71.109375 -181.367188 79.578125 -194.796875 89.171875 -208.546875 C 98.441406 -221.960938 108.347656 -233.785156 118.890625 -244.015625 C 129.441406 -253.921875 140.3125 -261.429688 151.5 -266.546875 C 162.675781 -271.335938 173.859375 -271.660156 185.046875 -267.515625 C 193.035156 -264.316406 199.429688 -261.4375 204.234375 -258.875 C 208.703125 -256 211.894531 -253.441406 213.8125 -251.203125 C 215.726562 -248.972656 216.6875 -246.898438 216.6875 -244.984375 C 216.375 -243.054688 215.414062 -241.457031 213.8125 -240.1875 C 210.300781 -236.664062 203.59375 -233.785156 193.6875 -231.546875 C 196.238281 -234.109375 198.15625 -236.347656 199.4375 -238.265625 C 200.394531 -239.859375 200.710938 -241.457031 200.390625 -243.0625 C 199.753906 -244.65625 197.519531 -245.453125 193.6875 -245.453125 C 179.625 -245.453125 166.195312 -241.9375 153.40625 -234.90625 C 140.300781 -227.875 128 -218.609375 116.5 -207.109375 C 104.988281 -195.273438 94.117188 -182.007812 83.890625 -167.3125 C 73.671875 -152.613281 64.40625 -137.59375 56.09375 -122.25 C 36.28125 -86.132812 18.378906 -45.222656 2.390625 0.484375 C -4.316406 2.078125 -8.945312 0.316406 -11.5 -4.796875 C -14.0625 -9.910156 -15.179688 -17.257812 -14.859375 -26.84375 C -14.535156 -36.113281 -13.097656 -46.984375 -10.546875 -59.453125 C -7.992188 -71.910156 -4.796875 -84.851562 -0.953125 -98.28125 C 7.671875 -129.601562 19.65625 -165.398438 35 -205.671875 Z M 35 -205.671875 "/></g></g></g><g clip-path="url(#3125838619)"><g clip-path="url(#3179b5af1e)"><g transform="matrix(1, 0, 0, 1, 1039, 734)"><g clip-path="url(#c03cc124a3)"><g clip-path="url(#b5c4c126db)"><g clip-path="url(#dee6cb4550)"><g clip-path="url(#88a959cb5e)"><path fill="#ffffff" d="M 139.757812 282.261719 C 135.378906 285.476562 130.015625 286.726562 124.660156 285.785156 C 119.308594 284.84375 114.675781 281.839844 111.679688 277.3125 C 108.660156 272.789062 107.648438 267.378906 108.828125 262.074219 L 132.054688 157.535156 L 161.574219 162.742188 L 147.648438 268.917969 C 146.941406 274.304688 144.136719 279.042969 139.757812 282.261719 Z M 132.441406 262.476562 L 134.714844 249.59375 C 135.089844 247.472656 133.675781 245.453125 131.550781 245.078125 C 129.425781 244.703125 127.40625 246.117188 127.03125 248.242188 L 124.761719 261.121094 C 124.574219 262.179688 124.832031 263.21875 125.40625 264.035156 C 125.980469 264.855469 126.863281 265.453125 127.925781 265.640625 C 130.046875 266.015625 132.066406 264.601562 132.441406 262.476562 Z M 132.441406 262.476562 " fill-opacity="1" fill-rule="nonzero"/></g></g></g><g clip-path="url(#fec62e9b82)"><g clip-path="url(#90b009c601)"><g clip-path="url(#5218867039)"><path fill="#ffffff" d="M 162.589844 154.996094 L 133.75 149.910156 L 135.21875 143.28125 L 163.46875 148.28125 Z M 162.589844 154.996094 " fill-opacity="1" fill-rule="nonzero"/></g></g></g><g clip-path="url(#06380a6938)"><g clip-path="url(#6aea6ab1c9)"><g clip-path="url(#229f79b73d)"><path fill="#ffffff" d="M 139.21875 125.296875 L 165.867188 129.992188 L 164.484375 140.535156 L 136.914062 135.65625 Z M 139.21875 125.296875 " fill-opacity="1" fill-rule="nonzero"/></g></g></g><g clip-path="url(#170eb5f373)"><g clip-path="url(#a0600a7d9e)"><g clip-path="url(#4d26c1ca46)"><path fill="#ffffff" d="M 153.90625 93.820312 L 143.183594 20.941406 C 142.933594 19.210938 143.726562 17.511719 145.222656 16.613281 L 168.761719 2.335938 L 170.585938 5.34375 L 153.695312 21.71875 C 152.792969 22.59375 152.371094 23.84375 152.550781 25.085938 L 162.667969 93.878906 C 162.738281 94.339844 162.730469 94.808594 162.652344 95.269531 L 158.164062 120.71875 L 149.628906 119.214844 L 153.886719 95.074219 C 153.960938 94.664062 153.964844 94.242188 153.902344 93.828125 Z M 153.90625 93.820312 " fill-opacity="1" fill-rule="nonzero"/></g></g></g></g></g></g></g><g clip-path="url(#16b9cfe163)"><path fill="#ffffff" d="M 1192.40625 728.007812 C 1192.40625 728.394531 1192.371094 728.777344 1192.292969 729.160156 C 1192.21875 729.539062 1192.105469 729.910156 1191.957031 730.269531 C 1191.808594 730.625 1191.628906 730.96875 1191.410156 731.289062 C 1191.195312 731.613281 1190.953125 731.910156 1190.675781 732.183594 C 1190.402344 732.460938 1190.105469 732.703125 1189.78125 732.917969 C 1189.460938 733.136719 1189.117188 733.316406 1188.761719 733.464844 C 1188.402344 733.613281 1188.03125 733.726562 1187.652344 733.800781 C 1187.269531 733.878906 1186.886719 733.914062 1186.5 733.914062 C 1186.113281 733.914062 1185.726562 733.878906 1185.347656 733.800781 C 1184.964844 733.726562 1184.597656 733.613281 1184.238281 733.464844 C 1183.878906 733.316406 1183.539062 733.136719 1183.21875 732.917969 C 1182.894531 732.703125 1182.597656 732.460938 1182.320312 732.183594 C 1182.046875 731.910156 1181.800781 731.613281 1181.585938 731.289062 C 1181.371094 730.96875 1181.1875 730.625 1181.039062 730.269531 C 1180.890625 729.910156 1180.78125 729.539062 1180.703125 729.160156 C 1180.628906 728.777344 1180.589844 728.394531 1180.589844 728.007812 C 1180.589844 727.617188 1180.628906 727.234375 1180.703125 726.855469 C 1180.78125 726.472656 1180.890625 726.105469 1181.039062 725.746094 C 1181.1875 725.386719 1181.371094 725.046875 1181.585938 724.722656 C 1181.800781 724.402344 1182.046875 724.105469 1182.320312 723.828125 C 1182.597656 723.554688 1182.894531 723.308594 1183.21875 723.09375 C 1183.539062 722.878906 1183.878906 722.695312 1184.238281 722.546875 C 1184.597656 722.398438 1184.964844 722.289062 1185.347656 722.210938 C 1185.726562 722.136719 1186.113281 722.097656 1186.5 722.097656 C 1186.886719 722.097656 1187.269531 722.136719 1187.652344 722.210938 C 1188.03125 722.289062 1188.402344 722.398438 1188.761719 722.546875 C 1189.117188 722.695312 1189.460938 722.878906 1189.78125 723.09375 C 1190.105469 723.308594 1190.402344 723.554688 1190.675781 723.828125 C 1190.953125 724.105469 1191.195312 724.402344 1191.410156 724.722656 C 1191.628906 725.046875 1191.808594 725.386719 1191.957031 725.746094 C 1192.105469 726.105469 1192.21875 726.472656 1192.292969 726.855469 C 1192.371094 727.234375 1192.40625 727.617188 1192.40625 728.007812 Z M 1192.40625 728.007812 " fill-opacity="1" fill-rule="nonzero"/></g><path stroke-linecap="butt" transform="matrix(1.198507, 0, 0, 1.198507, 573.519612, 1073.598872)" fill="none" stroke-linejoin="miter" d="M -0.0000675817 1.501506 L 655.926626 1.501506 " stroke="#ffffff" stroke-width="3" stroke-opacity="1" stroke-miterlimit="4"/><g clip-path="url(#916c1bfb91)"><g clip-path="url(#e13f3b3fde)"><g transform="matrix(1, 0, 0, 1, 1358, 1027)"><g clip-path="url(#bcf931ea0c)"><g clip-path="url(#44a630f72b)"><g clip-path="url(#73e7218760)"><g clip-path="url(#1ee6f37351)"><path fill="#ffffff" d="M -68.820312 47.671875 L 2.964844 45.882812 C 3.71875 47.789062 4.734375 49.390625 6.023438 50.59375 L -68.695312 52.558594 C -68.492188 51.765625 -68.351562 50.957031 -68.375 50.109375 C -68.394531 49.257812 -68.574219 48.453125 -68.820312 47.671875 Z M -68.820312 47.671875 " fill-opacity="1" fill-rule="nonzero"/></g></g></g><g clip-path="url(#d9a3c0bdaa)"><g clip-path="url(#68243d63ee)"><g clip-path="url(#cda57cd5b8)"><path fill="#ffffff" d="M 34.398438 30.945312 C 38.402344 20.757812 38.953125 10.933594 36.464844 4.53125 C 41.210938 8.292969 41.539062 20.105469 36.890625 31.929688 C 32.242188 43.746094 23.957031 52.167969 17.917969 51.695312 C 24.105469 48.703125 30.390625 41.132812 34.398438 30.945312 Z M 34.398438 30.945312 " fill-opacity="1" fill-rule="nonzero"/></g></g></g><g clip-path="url(#bdd09eaeac)"><g clip-path="url(#3576afb4a8)"><g clip-path="url(#57b78c8ab9)"><path fill="#ffffff" d="M 29.070312 1.324219 C 35.15625 3.71875 36.003906 16.660156 30.921875 29.582031 C 25.839844 42.503906 16.40625 51.398438 10.316406 49.007812 C 4.222656 46.617188 3.378906 33.671875 8.464844 20.75 C 11.046875 14.183594 14.742188 8.542969 18.875 4.863281 C 22.617188 1.539062 26.332031 0.246094 29.070312 1.324219 Z M 29.070312 1.324219 " fill-opacity="1" fill-rule="nonzero"/></g></g></g></g></g></g></g><g clip-path="url(#83bf36f04e)"><g clip-path="url(#13699d20fd)"><g transform="matrix(1, 0, 0, 1, 742, 1072)"><g clip-path="url(#0e61c5738a)"><g clip-path="url(#5d4e31125e)"><g clip-path="url(#5585b89a54)"><path fill="#ffffff" d="M 0.203125 0.816406 L 444.519531 0.816406 L 444.519531 7.1875 L 0.203125 7.1875 Z M 0.203125 0.816406 " fill-opacity="1" fill-rule="nonzero"/></g></g></g></g></g></g><g clip-path="url(#c29144280b)"><g clip-path="url(#c3763385dc)"><g transform="matrix(1, 0, 0, 1, 757, 1069)"><g clip-path="url(#cc70c6b0b4)"><g clip-path="url(#0e90bbf93b)"><g clip-path="url(#480d4e2583)"><path fill="#ffffff" d="M 0.203125 0.34375 L 491.386719 0.34375 L 491.386719 9.644531 L 0.203125 9.644531 Z M 0.203125 0.34375 " fill-opacity="1" fill-rule="nonzero"/></g></g></g></g></g></g><g clip-path="url(#fd7a2fda0c)"><g clip-path="url(#6fe48dc890)"><g transform="matrix(1, 0, 0, 1, 756, 1072)"><g clip-path="url(#ca487ebfc5)"><g clip-path="url(#b5109c0dc0)"><g clip-path="url(#21075bf98f)"><path fill="#ffffff" d="M 0.453125 0.492188 L 491.636719 0.492188 L 491.636719 9.796875 L 0.453125 9.796875 Z M 0.453125 0.492188 " fill-opacity="1" fill-rule="nonzero"/></g></g></g></g></g></g><g clip-path="url(#90151dade0)"><path fill="#ffffff" d="M 584.730469 1075.25 C 584.730469 1075.636719 584.695312 1076.023438 584.617188 1076.402344 C 584.542969 1076.785156 584.429688 1077.152344 584.28125 1077.511719 C 584.132812 1077.871094 583.953125 1078.210938 583.734375 1078.53125 C 583.519531 1078.855469 583.273438 1079.152344 583 1079.429688 C 582.726562 1079.703125 582.429688 1079.949219 582.105469 1080.164062 C 581.78125 1080.378906 581.441406 1080.558594 581.085938 1080.707031 C 580.726562 1080.855469 580.355469 1080.96875 579.976562 1081.046875 C 579.59375 1081.121094 579.210938 1081.160156 578.824219 1081.160156 C 578.433594 1081.160156 578.050781 1081.121094 577.671875 1081.046875 C 577.289062 1080.96875 576.921875 1080.855469 576.5625 1080.707031 C 576.203125 1080.558594 575.863281 1080.378906 575.539062 1080.164062 C 575.21875 1079.949219 574.917969 1079.703125 574.644531 1079.429688 C 574.371094 1079.152344 574.125 1078.855469 573.910156 1078.53125 C 573.695312 1078.210938 573.511719 1077.871094 573.363281 1077.511719 C 573.214844 1077.152344 573.105469 1076.785156 573.027344 1076.402344 C 572.953125 1076.023438 572.914062 1075.636719 572.914062 1075.25 C 572.914062 1074.863281 572.953125 1074.476562 573.027344 1074.097656 C 573.105469 1073.71875 573.214844 1073.347656 573.363281 1072.988281 C 573.511719 1072.632812 573.695312 1072.289062 573.910156 1071.96875 C 574.125 1071.644531 574.371094 1071.347656 574.644531 1071.074219 C 574.917969 1070.796875 575.21875 1070.554688 575.539062 1070.335938 C 575.863281 1070.121094 576.203125 1069.941406 576.5625 1069.792969 C 576.921875 1069.644531 577.289062 1069.53125 577.671875 1069.457031 C 578.050781 1069.378906 578.433594 1069.34375 578.824219 1069.34375 C 579.210938 1069.34375 579.59375 1069.378906 579.976562 1069.457031 C 580.355469 1069.53125 580.726562 1069.644531 581.085938 1069.792969 C 581.441406 1069.941406 581.78125 1070.121094 582.105469 1070.335938 C 582.429688 1070.554688 582.726562 1070.796875 583 1071.074219 C 583.273438 1071.347656 583.519531 1071.644531 583.734375 1071.96875 C 583.953125 1072.289062 584.132812 1072.632812 584.28125 1072.988281 C 584.429688 1073.347656 584.542969 1073.71875 584.617188 1074.097656 C 584.695312 1074.476562 584.730469 1074.863281 584.730469 1075.25 Z M 584.730469 1075.25 " fill-opacity="1" fill-rule="nonzero"/></g><g clip-path="url(#a4ef78aa0d)"><path fill="#ffffff" d="M 285.75 780.269531 C 281.214844 780.269531 277.542969 776.425781 277.542969 771.890625 C 277.542969 776.425781 273.867188 780.269531 269.332031 780.269531 C 273.867188 780.269531 277.542969 783.945312 277.542969 788.480469 C 277.542969 783.945312 281.21875 780.269531 285.75 780.269531 Z M 285.75 780.269531 " fill-opacity="1" fill-rule="nonzero"/><path fill="#ffffff" d="M 277.867188 788.476562 L 277.214844 788.476562 C 277.214844 784.128906 273.679688 780.59375 269.332031 780.59375 L 269.332031 779.945312 C 273.605469 779.945312 277.214844 776.253906 277.214844 771.890625 L 277.867188 771.890625 C 277.867188 776.253906 281.476562 779.945312 285.75 779.945312 L 285.75 780.59375 C 281.402344 780.59375 277.867188 784.132812 277.867188 788.476562 Z M 271.660156 780.265625 C 274.496094 781.070312 276.734375 783.308594 277.542969 786.140625 C 278.351562 783.308594 280.589844 781.070312 283.425781 780.265625 C 280.589844 779.445312 278.351562 777.164062 277.542969 774.273438 C 276.734375 777.164062 274.496094 779.445312 271.660156 780.265625 Z M 271.660156 780.265625 " fill-opacity="1" fill-rule="nonzero"/></g><g clip-path="url(#0d07fb32a5)"><path fill="#ffffff" d="M 315.117188 770.964844 C 308.273438 770.964844 302.726562 765.160156 302.726562 758.316406 C 302.726562 765.160156 297.179688 770.964844 290.335938 770.964844 C 297.179688 770.964844 302.726562 776.511719 302.726562 783.355469 C 302.726562 776.511719 308.273438 770.964844 315.117188 770.964844 Z M 315.117188 770.964844 " fill-opacity="1" fill-rule="nonzero"/><path fill="#ffffff" d="M 303.050781 783.355469 L 302.402344 783.355469 C 302.402344 776.703125 296.988281 771.289062 290.335938 771.289062 L 290.335938 770.640625 C 296.875 770.640625 302.402344 764.996094 302.402344 758.316406 L 303.050781 758.316406 C 303.050781 764.996094 308.574219 770.640625 315.117188 770.640625 L 315.117188 771.289062 C 308.464844 771.289062 303.050781 776.703125 303.050781 783.355469 Z M 293.1875 770.960938 C 297.910156 772.046875 301.636719 775.769531 302.726562 780.492188 C 303.816406 775.769531 307.542969 772.046875 312.265625 770.960938 C 307.542969 769.855469 303.816406 766.054688 302.726562 761.238281 C 301.636719 766.054688 297.910156 769.855469 293.1875 770.960938 Z M 293.1875 770.960938 " fill-opacity="1" fill-rule="nonzero"/></g><g clip-path="url(#239381353e)"><path fill="#ffffff" d="M 304.449219 800.449219 C 297.972656 800.449219 292.722656 794.953125 292.722656 788.476562 C 292.722656 794.953125 287.472656 800.449219 280.996094 800.449219 C 287.472656 800.449219 292.722656 805.699219 292.722656 812.175781 C 292.722656 805.699219 297.972656 800.449219 304.449219 800.449219 Z M 304.449219 800.449219 " fill-opacity="1" fill-rule="nonzero"/><path fill="#ffffff" d="M 293.046875 812.175781 L 292.398438 812.175781 C 292.398438 805.890625 287.28125 800.773438 280.996094 800.773438 L 280.996094 800.125 C 287.175781 800.125 292.398438 794.792969 292.398438 788.480469 L 293.046875 788.480469 C 293.046875 794.792969 298.269531 800.125 304.449219 800.125 L 304.449219 800.773438 C 298.164062 800.773438 293.046875 805.890625 293.046875 812.175781 Z M 283.769531 800.445312 C 288.1875 801.492188 291.671875 804.972656 292.722656 809.390625 C 293.769531 804.972656 297.257812 801.492188 301.675781 800.445312 C 297.257812 799.378906 293.769531 795.828125 292.722656 791.320312 C 291.671875 795.828125 288.1875 799.378906 283.769531 800.445312 Z M 283.769531 800.445312 " fill-opacity="1" fill-rule="nonzero"/></g></g></g></svg>